<svg width="20" height="20" viewBox="0 0 20 20" fill="none" xmlns="http://www.w3.org/2000/svg">
<path d="M9.60021 11.8117L6.97417 9.18583C6.93806 9.14958 6.90958 9.1091 6.88875 9.06438C6.86792 9.01979 6.8575 8.97195 6.8575 8.92083C6.8575 8.81875 6.89201 8.73 6.96104 8.65458C7.03007 8.57931 7.12104 8.54167 7.23396 8.54167H12.766C12.879 8.54167 12.9699 8.57972 13.039 8.65583C13.108 8.73181 13.1425 8.82049 13.1425 8.92188C13.1425 8.94729 13.1035 9.03528 13.0256 9.18583L10.3998 11.8117C10.3395 11.8721 10.2772 11.9162 10.2127 11.944C10.1483 11.9717 10.0774 11.9856 10 11.9856C9.92264 11.9856 9.85174 11.9717 9.78729 11.944C9.72285 11.9162 9.66049 11.8721 9.60021 11.8117Z" fill="currentColor"/>
</svg>
