<svg width="24" height="24" viewBox="0 0 24 24" fill="none" xmlns="http://www.w3.org/2000/svg">
<g id="Placeholder">
<path id="select" fill="currentColor" d="M4.30775 5.1155C4.07892 5.1155 3.88708 5.03808 3.73225 4.88325C3.57742 4.72842 3.5 4.53658 3.5 4.30775C3.5 4.07892 3.57742 3.88708 3.73225 3.73225C3.88708 3.57742 4.07892 3.5 4.30775 3.5C4.53658 3.5 4.72842 3.57742 4.88325 3.73225C5.03808 3.88708 5.1155 4.07892 5.1155 4.30775C5.1155 4.53658 5.03808 4.72842 4.88325 4.88325C4.72842 5.03808 4.53658 5.1155 4.30775 5.1155ZM8.15375 5.1155C7.92492 5.1155 7.73317 5.03808 7.5785 4.88325C7.42367 4.72842 7.34625 4.53658 7.34625 4.30775C7.34625 4.07892 7.42367 3.88708 7.5785 3.73225C7.73317 3.57742 7.92492 3.5 8.15375 3.5C8.38258 3.5 8.57442 3.57742 8.72925 3.73225C8.88408 3.88708 8.9615 4.07892 8.9615 4.30775C8.9615 4.53658 8.88408 4.72842 8.72925 4.88325C8.57442 5.03808 8.38258 5.1155 8.15375 5.1155ZM12 5.1155C11.7712 5.1155 11.5793 5.03808 11.4245 4.88325C11.2697 4.72842 11.1923 4.53658 11.1923 4.30775C11.1923 4.07892 11.2697 3.88708 11.4245 3.73225C11.5793 3.57742 11.7712 3.5 12 3.5C12.2288 3.5 12.4207 3.57742 12.5755 3.73225C12.7303 3.88708 12.8077 4.07892 12.8077 4.30775C12.8077 4.53658 12.7303 4.72842 12.5755 4.88325C12.4207 5.03808 12.2288 5.1155 12 5.1155ZM15.8462 5.1155C15.6174 5.1155 15.4256 5.03808 15.2708 4.88325C15.1159 4.72842 15.0385 4.53658 15.0385 4.30775C15.0385 4.07892 15.1159 3.88708 15.2708 3.73225C15.4256 3.57742 15.6174 3.5 15.8462 3.5C16.0751 3.5 16.2668 3.57742 16.4215 3.73225C16.5763 3.88708 16.6538 4.07892 16.6538 4.30775C16.6538 4.53658 16.5763 4.72842 16.4215 4.88325C16.2668 5.03808 16.0751 5.1155 15.8462 5.1155ZM19.6923 5.1155C19.4634 5.1155 19.2716 5.03808 19.1167 4.88325C18.9619 4.72842 18.8845 4.53658 18.8845 4.30775C18.8845 4.07892 18.9619 3.88708 19.1167 3.73225C19.2716 3.57742 19.4634 3.5 19.6923 3.5C19.9211 3.5 20.1129 3.57742 20.2678 3.73225C20.4226 3.88708 20.5 4.07892 20.5 4.30775C20.5 4.53658 20.4226 4.72842 20.2678 4.88325C20.1129 5.03808 19.9211 5.1155 19.6923 5.1155ZM4.30775 8.9615C4.07892 8.9615 3.88708 8.88408 3.73225 8.72925C3.57742 8.57442 3.5 8.38258 3.5 8.15375C3.5 7.92492 3.57742 7.73317 3.73225 7.5785C3.88708 7.42367 4.07892 7.34625 4.30775 7.34625C4.53658 7.34625 4.72842 7.42367 4.88325 7.5785C5.03808 7.73317 5.1155 7.92492 5.1155 8.15375C5.1155 8.38258 5.03808 8.57442 4.88325 8.72925C4.72842 8.88408 4.53658 8.9615 4.30775 8.9615ZM19.6923 8.9615C19.4634 8.9615 19.2716 8.88408 19.1167 8.72925C18.9619 8.57442 18.8845 8.38258 18.8845 8.15375C18.8845 7.92492 18.9619 7.73317 19.1167 7.5785C19.2716 7.42367 19.4634 7.34625 19.6923 7.34625C19.9211 7.34625 20.1129 7.42367 20.2678 7.5785C20.4226 7.73317 20.5 7.92492 20.5 8.15375C20.5 8.38258 20.4226 8.57442 20.2678 8.72925C20.1129 8.88408 19.9211 8.9615 19.6923 8.9615ZM4.30775 12.8077C4.07892 12.8077 3.88708 12.7303 3.73225 12.5755C3.57742 12.4207 3.5 12.2288 3.5 12C3.5 11.7712 3.57742 11.5793 3.73225 11.4245C3.88708 11.2697 4.07892 11.1923 4.30775 11.1923C4.53658 11.1923 4.72842 11.2697 4.88325 11.4245C5.03808 11.5793 5.1155 11.7712 5.1155 12C5.1155 12.2288 5.03808 12.4207 4.88325 12.5755C4.72842 12.7303 4.53658 12.8077 4.30775 12.8077ZM19.6923 12.8077C19.4634 12.8077 19.2716 12.7303 19.1167 12.5755C18.9619 12.4207 18.8845 12.2288 18.8845 12C18.8845 11.7712 18.9619 11.5793 19.1167 11.4245C19.2716 11.2697 19.4634 11.1923 19.6923 11.1923C19.9211 11.1923 20.1129 11.2697 20.2678 11.4245C20.4226 11.5793 20.5 11.7712 20.5 12C20.5 12.2288 20.4226 12.4207 20.2678 12.5755C20.1129 12.7303 19.9211 12.8077 19.6923 12.8077ZM4.30775 16.6538C4.07892 16.6538 3.88708 16.5763 3.73225 16.4215C3.57742 16.2668 3.5 16.0751 3.5 15.8463C3.5 15.6174 3.57742 15.4256 3.73225 15.2708C3.88708 15.1159 4.07892 15.0385 4.30775 15.0385C4.53658 15.0385 4.72842 15.1159 4.88325 15.2708C5.03808 15.4256 5.1155 15.6174 5.1155 15.8463C5.1155 16.0751 5.03808 16.2668 4.88325 16.4215C4.72842 16.5763 4.53658 16.6538 4.30775 16.6538ZM19.6923 16.6538C19.4634 16.6538 19.2716 16.5763 19.1167 16.4215C18.9619 16.2668 18.8845 16.0751 18.8845 15.8463C18.8845 15.6174 18.9619 15.4256 19.1167 15.2708C19.2716 15.1159 19.4634 15.0385 19.6923 15.0385C19.9211 15.0385 20.1129 15.1159 20.2678 15.2708C20.4226 15.4256 20.5 15.6174 20.5 15.8463C20.5 16.0751 20.4226 16.2668 20.2678 16.4215C20.1129 16.5763 19.9211 16.6538 19.6923 16.6538ZM4.30775 20.5C4.07892 20.5 3.88708 20.4226 3.73225 20.2678C3.57742 20.1129 3.5 19.9211 3.5 19.6923C3.5 19.4634 3.57742 19.2716 3.73225 19.1167C3.88708 18.9619 4.07892 18.8845 4.30775 18.8845C4.53658 18.8845 4.72842 18.9619 4.88325 19.1167C5.03808 19.2716 5.1155 19.4634 5.1155 19.6923C5.1155 19.9211 5.03808 20.1129 4.88325 20.2678C4.72842 20.4226 4.53658 20.5 4.30775 20.5ZM8.15375 20.5C7.92492 20.5 7.73317 20.4226 7.5785 20.2678C7.42367 20.1129 7.34625 19.9211 7.34625 19.6923C7.34625 19.4634 7.42367 19.2716 7.5785 19.1167C7.73317 18.9619 7.92492 18.8845 8.15375 18.8845C8.38258 18.8845 8.57442 18.9619 8.72925 19.1167C8.88408 19.2716 8.9615 19.4634 8.9615 19.6923C8.9615 19.9211 8.88408 20.1129 8.72925 20.2678C8.57442 20.4226 8.38258 20.5 8.15375 20.5ZM12 20.5C11.7712 20.5 11.5793 20.4226 11.4245 20.2678C11.2697 20.1129 11.1923 19.9211 11.1923 19.6923C11.1923 19.4634 11.2697 19.2716 11.4245 19.1167C11.5793 18.9619 11.7712 18.8845 12 18.8845C12.2288 18.8845 12.4207 18.9619 12.5755 19.1167C12.7303 19.2716 12.8077 19.4634 12.8077 19.6923C12.8077 19.9211 12.7303 20.1129 12.5755 20.2678C12.4207 20.4226 12.2288 20.5 12 20.5ZM15.8462 20.5C15.6174 20.5 15.4256 20.4226 15.2708 20.2678C15.1159 20.1129 15.0385 19.9211 15.0385 19.6923C15.0385 19.4634 15.1159 19.2716 15.2708 19.1167C15.4256 18.9619 15.6174 18.8845 15.8462 18.8845C16.0751 18.8845 16.2668 18.9619 16.4215 19.1167C16.5763 19.2716 16.6538 19.4634 16.6538 19.6923C16.6538 19.9211 16.5763 20.1129 16.4215 20.2678C16.2668 20.4226 16.0751 20.5 15.8462 20.5ZM19.6923 20.5C19.4634 20.5 19.2716 20.4226 19.1167 20.2678C18.9619 20.1129 18.8845 19.9211 18.8845 19.6923C18.8845 19.4634 18.9619 19.2716 19.1167 19.1167C19.2716 18.9619 19.4634 18.8845 19.6923 18.8845C19.9211 18.8845 20.1129 18.9619 20.2678 19.1167C20.4226 19.2716 20.5 19.4634 20.5 19.6923C20.5 19.9211 20.4226 20.1129 20.2678 20.2678C20.1129 20.4226 19.9211 20.5 19.6923 20.5Z"/>
</g>
</svg>
