<svg width="140" height="48" viewBox="0 0 140 48" fill="none" xmlns="http://www.w3.org/2000/svg">
<g id="PASSUv3-logo">
<g id="Vector">
<path d="M14.012 12.7747C14.0128 12.5186 14.2212 12.3114 14.4781 12.3112L23.7679 12.3036C25.4816 12.3021 27.3329 12.1692 29.0305 12.3877C31.2057 12.6677 33.205 13.4769 34.5668 15.2556C35.8557 16.9392 36.2971 19.0932 36.0167 21.1726C35.8294 22.5603 35.3038 23.8348 34.4067 24.9173C31.2563 28.7186 25.6032 27.7203 21.1494 27.7822C20.7672 27.7874 19.9789 27.7244 19.681 28.0101C19.2034 28.4683 19.3464 33.1543 19.3788 34.9048C19.3835 35.1615 19.1757 35.3679 18.9181 35.3677L14.4746 35.3647C14.2177 35.3645 14.0093 35.1575 14.0085 34.9015C14.0012 32.3976 14.0045 29.7878 14.0071 27.1886C14.1342 20.4263 24.0138 23.7626 28.3119 22.791C31.1158 22.1571 31.4553 18.8795 29.247 17.6253C28.3367 17.1082 24.7461 17.287 23.4674 17.2881C20.4658 17.2958 17.4642 17.2885 14.4628 17.2662C14.2061 17.2643 13.9992 17.0559 14 16.8L14.012 12.7747Z" fill="#075CCD"/>
<path d="M44.9949 12.352C45.5577 12.198 47.4646 12.198 48.0274 12.352C48.7779 12.5612 49.6388 14.9076 50.0012 15.6506L52.0664 20.0831C53.0832 22.2674 58.2688 32.4512 59.2897 34.7055C59.437 35.0119 59.2147 35.3683 58.8738 35.3759C57.2702 35.4113 54.7203 35.4801 53.9757 35.1339C52.6155 33.4167 47.036 20.4302 46.5111 20.1396C45.9863 20.4302 40.4067 33.4167 39.0466 35.1339C38.302 35.4801 35.752 35.4113 34.1485 35.3759C33.8075 35.3683 33.5852 35.0119 33.7325 34.7055C34.7535 32.4512 39.939 22.2674 40.9558 20.0831L43.021 15.6506C43.3834 14.9076 44.2444 12.5612 44.9949 12.352Z" fill="#075CCD"/>
<path d="M69.6024 12.0534C72.9049 11.7273 76.2877 13.0124 78.6375 15.3086C78.8178 15.4848 78.8123 15.7727 78.6333 15.9501L75.8883 18.6731C75.784 18.7766 75.6131 18.7691 75.5116 18.6627C74.0002 17.0944 72.3474 16.3987 70.15 16.3549C68.9023 16.3549 67.2473 16.5496 66.3211 17.4473C65.3962 18.3439 65.9926 19.7635 67.0197 20.284C67.8536 20.7211 68.8568 20.9296 69.7732 21.1249C73.8951 22.0184 79.4457 23.1493 79.4952 28.4095C79.5336 32.3923 76.2916 34.6341 72.7333 35.373C71.5008 35.7423 68.0304 35.7611 67.4588 35.5805C64.3424 35.2313 62.1086 34.0474 60.1547 31.7361C59.9992 31.5522 60.0181 31.2799 60.1926 31.1138L62.8109 28.6218C63.0019 28.4399 63.3058 28.4534 63.4899 28.6423C65.85 31.0642 69.0178 32.0257 72.3565 30.894C72.6505 30.7943 73.4466 30.3895 73.6113 30.141C75.7177 26.9738 70.4561 26.5098 68.5386 25.9644C64.9717 25.1411 60.8736 23.6932 60.7122 19.3713C60.5141 14.0664 65.1248 12.311 69.6024 12.0534Z" fill="#075CCD"/>
<path d="M91.5655 12.0501C94.8679 11.724 98.2507 13.0092 100.601 15.3054C100.781 15.4815 100.775 15.7694 100.596 15.9469L97.8513 18.6699C97.747 18.7734 97.5761 18.7658 97.4746 18.6595C95.9632 17.0911 94.3104 16.3954 92.113 16.3516C90.8653 16.3516 89.2103 16.5464 88.2841 17.4441C87.3592 18.3407 87.9556 19.7602 88.9827 20.2807C89.8166 20.7179 90.8199 20.9264 91.7362 21.1217C95.8582 22.0151 101.409 23.1461 101.458 28.4062C101.497 32.3891 98.2546 34.6309 94.6963 35.3698C93.4638 35.7391 89.9934 35.7578 89.4218 35.5773C86.3054 35.228 84.0716 34.0442 82.1177 31.7329C81.9622 31.549 81.9811 31.2766 82.1557 31.1105L84.7739 28.6185C84.9649 28.4367 85.2688 28.4501 85.4529 28.639C87.813 31.061 90.9808 32.0225 94.3195 30.8908C94.6135 30.7911 95.4096 30.3863 95.5743 30.1378C97.6807 26.9705 92.4191 26.5065 90.5016 25.9611C86.9347 25.1379 82.8367 23.6899 82.6752 19.3681C82.4771 14.0631 87.0879 12.3078 91.5655 12.0501Z" fill="#075CCD"/>
<path d="M125.515 12.3123C125.769 12.3125 125.976 12.5151 125.98 12.7681C126.057 17.5492 125.878 22.3828 125.97 27.1573C126.089 33.3407 120.777 36.1434 115.25 35.9883V35.9939C109.722 36.149 104.411 33.3462 104.53 27.1629C104.622 22.3884 104.442 17.5547 104.519 12.7736C104.524 12.5207 104.731 12.3181 104.985 12.3178L108.973 12.3144C109.231 12.3142 109.44 12.523 109.44 12.7802L109.423 21.8206C109.419 23.6729 109.305 25.7184 109.562 27.5616C109.979 30.4678 112.522 31.7161 115.25 31.6066V31.601C117.978 31.7105 120.52 30.4623 120.938 27.5561C121.194 25.7129 121.08 23.6674 121.076 21.815L121.06 12.7747C121.059 12.5174 121.269 12.3087 121.527 12.3088L125.515 12.3123Z" fill="#075CCD"/>
</g>
</g>
</svg>
